<svg xmlns="http://www.w3.org/2000/svg" x="0px" y="0px"
     width="30" height="30"
     viewBox="0 0 172 172">
    <g>
        <path d="M86,6.88c-43.65844,0 -79.12,35.46156 -79.12,79.12c0,43.65844 35.46156,79.12 79.12,79.12c43.65844,0 79.12,-35.46156 79.12,-79.12c0,-43.65844 -35.46156,-79.12 -79.12,-79.12zM86,13.76c39.93625,0 72.24,32.30375 72.24,72.24c0,22.13156 -9.94375,41.89813 -25.585,55.1475c-1.66625,-3.92375 -5.07937,-9.94375 -11.18,-14.7275c2.06938,-1.00781 3.99094,-2.05594 5.6975,-3.1175c8.85531,-5.4825 13.2225,-11.2875 13.2225,-11.2875l0.645,-0.9675v-1.1825c-0.16125,-21.55375 -8.82844,-35.905 -10.105,-37.9475c3.69531,-9.84969 2.10969,-18.30187 -0.86,-23.9725c-3.14437,-6.02 -7.6325,-9.46 -7.6325,-9.46l-2.365,-1.72l-2.15,2.0425l-12.255,12.255c-2.70094,-1.08844 -8.89562,-3.225 -19.6725,-3.225c-10.77687,0 -16.97156,2.13656 -19.6725,3.225l-12.255,-12.255l-2.15,-2.0425l-2.365,1.72c0,0 -4.48812,3.44 -7.6325,9.46c-2.96969,5.67063 -4.55531,14.12281 -0.86,23.9725c-1.27656,2.0425 -9.94375,16.39375 -10.105,37.9475v1.1825l0.645,0.9675c0,0 4.36719,5.805 13.2225,11.2875c1.67969,1.04813 3.56094,2.12313 5.59,3.1175c-6.06031,4.75688 -9.40625,10.81719 -11.0725,14.7275c-15.64125,-13.24937 -25.585,-33.01594 -25.585,-55.1475c0,-39.93625 32.30375,-72.24 72.24,-72.24zM51.815,46.44l11.0725,11.0725l1.8275,1.72l2.15,-1.075c0,0 6.85313,-3.44 19.135,-3.44c12.28188,0 19.135,3.44 19.135,3.44l2.15,1.075l1.8275,-1.72l11.0725,-11.0725c1.12875,1.06156 2.15,1.54531 3.7625,4.6225c2.41875,4.6225 4.03125,11.01875 0.215,19.78l-0.7525,1.72l0.9675,1.505c0,0 9.12406,14.31094 9.675,34.615c-0.84656,1.04813 -3.73562,4.50156 -10.535,8.7075c-7.91469,4.90469 -20.12937,9.89 -37.5175,9.89c-17.38812,0 -29.60281,-4.98531 -37.5175,-9.89c-6.79937,-4.20594 -9.68844,-7.65937 -10.535,-8.7075c0.55094,-20.30406 9.675,-34.615 9.675,-34.615l0.9675,-1.505l-0.7525,-1.72c-3.81625,-8.76125 -2.20375,-15.1575 0.215,-19.78c1.6125,-3.07719 2.63375,-3.56094 3.7625,-4.6225zM68.8,75.68c-7.56531,0 -13.76,6.19469 -13.76,13.76c0,7.56531 6.19469,13.76 13.76,13.76c7.56531,0 13.76,-6.19469 13.76,-13.76c0,-7.56531 -6.19469,-13.76 -13.76,-13.76zM103.2,75.68c-7.56531,0 -13.76,6.19469 -13.76,13.76c0,7.56531 6.19469,13.76 13.76,13.76c7.56531,0 13.76,-6.19469 13.76,-13.76c0,-7.56531 -6.19469,-13.76 -13.76,-13.76zM68.8,82.56c3.84313,0 6.88,3.03688 6.88,6.88c0,3.84313 -3.03687,6.88 -6.88,6.88c-3.84312,0 -6.88,-3.03687 -6.88,-6.88c0,-3.84312 3.03688,-6.88 6.88,-6.88zM103.2,82.56c3.84313,0 6.88,3.03688 6.88,6.88c0,3.84313 -3.03687,6.88 -6.88,6.88c-3.84312,0 -6.88,-3.03687 -6.88,-6.88c0,-3.84312 3.03688,-6.88 6.88,-6.88zM77.4,106.64l8.6,8.6l8.6,-8.6zM58.1575,129.5375c7.56531,2.66063 16.79688,4.6225 27.8425,4.6225c11.08594,0 20.37125,-1.94844 27.95,-4.6225c8.69406,4.87781 12.09375,13.30313 13.0075,16.0175c-11.62344,7.99531 -25.75969,12.685 -40.9575,12.685c-15.19781,0 -29.33406,-4.68969 -40.9575,-12.685c0.91375,-2.71437 4.39406,-11.20687 13.115,-16.0175z"/>
    </g>
</svg>