<svg height="512" viewBox="0 0 128 128" width="512" xmlns="http://www.w3.org/2000/svg"><g><path d="m109.5 38.767h-7.46v-6.432h1.447a1.749 1.749 0 0 0 1.75-1.75v-6.393a1.75 1.75 0 0 0 -1.75-1.75h-25.245a1.75 1.75 0 0 0 -1.75 1.75v6.393a1.749 1.749 0 0 0 1.75 1.75h1.448v6.432h-7.46a13.766 13.766 0 0 0 -13.75 13.75v62.983a7.759 7.759 0 0 0 7.75 7.75h49.27a7.759 7.759 0 0 0 7.75-7.75v-62.983a13.766 13.766 0 0 0 -13.75-13.75zm-29.508-12.825h21.745v2.893h-21.745zm3.2 6.393h15.348v6.432h-15.35zm-10.962 9.932h37.27a10.261 10.261 0 0 1 10.25 10.25v5.963h-57.77v-5.963a10.261 10.261 0 0 1 10.25-10.25zm47.52 58.633h-57.77v-38.92h57.77zm-4.25 18.85h-49.27a4.255 4.255 0 0 1 -4.25-4.25v-11.1h57.77v11.1a4.255 4.255 0 0 1 -4.25 4.25z"/><path d="m83.727 88.279c-.645 2.558.086 5.16 3.4 5.16 1.956 0 1.806-2.3 3.741-2.3s1.785 2.3 3.741 2.3c3.311 0 4.042-2.6 3.4-5.16-.253-1-1.806-7.571-7.138-7.571s-6.891 6.567-7.144 7.571z"/><path d="m94.43 78.266c1.669.464 3.567-1.117 4.239-3.532s-.136-4.75-1.8-5.214-3.567 1.117-4.239 3.532.131 4.748 1.8 5.214z"/><path d="m98.083 82.465c.883.883 2.55.649 3.723-.524s1.407-2.84.524-3.723-2.551-.649-3.723.524-1.407 2.839-.524 3.723z"/><path d="m87.3 78.266c1.669-.465 2.477-2.8 1.805-5.214s-2.57-4-4.239-3.532-2.476 2.8-1.8 5.214 2.565 3.996 4.234 3.532z"/><path d="m83.648 82.465c.883-.884.649-2.551-.524-3.723s-2.84-1.408-3.724-.524-.649 2.55.524 3.723 2.84 1.407 3.724.524z"/><path d="m47 29.609h-15.45v-21.359h4.43a1.75 1.75 0 0 0 0-3.5h-18.365a1.75 1.75 0 1 0 0 3.5h4.435v21.359h-15.45a1.75 1.75 0 1 0 0 3.5h3.759v48.636a13.763 13.763 0 0 0 10.2 13.267v6.618a6.25 6.25 0 0 0 4.5 5.986v13.884a1.75 1.75 0 0 0 3.5 0v-13.883a6.249 6.249 0 0 0 4.5-5.987v-6.619a13.761 13.761 0 0 0 10.181-13.266v-48.636h3.76a1.75 1.75 0 0 0 0-3.5zm-21.45-21.359h2.5v21.359h-2.5zm4 93.38a2.745 2.745 0 0 1 -2.691 2.734c-.02 0-.04-.006-.061-.006s-.039 0-.06.006a2.745 2.745 0 0 1 -2.688-2.734v-6.138h.055 5.385.06zm10.19-60.63h-4.25a1.75 1.75 0 0 0 0 3.5h4.25v4.542h-4.25a1.75 1.75 0 0 0 0 3.5h4.25v4.541h-4.25a1.75 1.75 0 0 0 0 3.5h4.25v4.542h-4.25a1.75 1.75 0 0 0 0 3.5h4.25v4.542h-4.25a1.75 1.75 0 0 0 0 3.5h4.25v5.078a10.261 10.261 0 0 1 -10.25 10.255h-5.385a10.261 10.261 0 0 1 -10.25-10.25v-48.641h25.885z"/><path d="m115.5 79a1.75 1.75 0 0 0 1.75-1.75v-10.375a1.75 1.75 0 0 0 -3.5 0v10.375a1.75 1.75 0 0 0 1.75 1.75z"/></g></svg>