<?xml version="1.0" encoding="iso-8859-1"?>
<!-- Generator: Adobe Illustrator 19.0.0, SVG Export Plug-In . SVG Version: 6.00 Build 0)  -->
<svg xmlns="http://www.w3.org/2000/svg" xmlns:xlink="http://www.w3.org/1999/xlink" version="1.1" id="Layer_1" x="0px" y="0px" viewBox="0 0 512 512" style="enable-background:new 0 0 512 512;" xml:space="preserve" width="512" height="512">
<g id="XMLID_373_">
	<path id="XMLID_374_" d="M74.777,213.336c0.382-10.595,3.856-20.432,10.048-28.45c9.209-11.926,23.679-18.769,39.698-18.773   c2.044-0.001,4-0.836,5.414-2.313s2.164-3.466,2.077-5.509c-0.371-8.66,0.868-17.084,3.683-25.036   c5.078-14.342,15.002-25.946,27.946-32.677c3.675-1.911,5.105-6.439,3.194-10.114c-1.91-3.674-6.437-5.103-10.114-3.194   c-16.327,8.489-28.816,23.043-35.166,40.979c-2.646,7.474-4.159,15.271-4.521,23.262c-17.703,1.896-33.484,10.483-44.082,24.207   c-8.118,10.513-12.671,23.334-13.167,37.077c-0.149,4.14,3.085,7.616,7.225,7.766c0.092,0.003,0.184,0.005,0.275,0.005   C71.304,220.565,74.631,217.383,74.777,213.336z"/>
	<path id="XMLID_375_" d="M280.84,203.895c5.281,0,10.626-1.11,15.749-3.323c11.227-4.851,20.392-14.603,25.145-26.756   c9.18-23.47-0.336-49.394-21.214-57.79c-9.355-3.764-19.851-3.528-29.547,0.662c-11.227,4.851-20.392,14.603-25.146,26.756   c-9.18,23.471,0.336,49.396,21.214,57.79C271.455,203.009,276.122,203.895,280.84,203.895z M259.797,148.907   c3.306-8.451,9.547-15.176,17.125-18.45c3.214-1.388,6.541-2.085,9.802-2.085c2.822,0,5.596,0.522,8.199,1.569   c13.276,5.34,19.037,22.57,12.842,38.409v0.001c-3.306,8.451-9.548,15.176-17.125,18.45c-5.995,2.588-12.39,2.771-18.003,0.516   C259.361,181.979,253.601,164.748,259.797,148.907z"/>
	<path id="XMLID_378_" d="M194.863,203.895c4.717,0,9.385-0.886,13.799-2.661c20.877-8.395,30.394-34.319,21.214-57.79   c-4.754-12.153-13.919-21.905-25.146-26.756c-9.699-4.189-20.192-4.425-29.547-0.662c-20.876,8.396-30.393,34.32-21.213,57.789   c4.753,12.154,13.918,21.906,25.145,26.757C184.236,202.784,189.58,203.895,194.863,203.895z M167.938,168.352   c-6.195-15.84-0.435-33.07,12.84-38.41c2.604-1.047,5.377-1.569,8.2-1.569c3.261,0,6.589,0.697,9.802,2.085   c7.578,3.274,13.82,9.999,17.125,18.45c6.195,15.841,0.435,33.071-12.841,38.41c-5.614,2.257-12.008,2.073-18.003-0.516   C177.485,183.527,171.243,176.803,167.938,168.352z"/>
	<path id="XMLID_381_" d="M153.743,195.872c-10.144-8.056-22.446-11.893-33.736-10.512c-8.498,1.033-15.838,5.049-20.671,11.306   c-11.545,14.949-6.05,38.933,12.249,53.463c8.788,6.979,19.191,10.786,29.16,10.786c1.539,0,3.066-0.09,4.576-0.274   c8.498-1.033,15.838-5.049,20.671-11.306C177.537,234.386,172.042,210.402,153.743,195.872z M154.12,240.167   c-3.024,3.916-7.439,5.198-10.61,5.584c-7.233,0.883-15.679-1.876-22.597-7.368c-11.707-9.297-16.151-24.202-9.705-32.549   c3.024-3.916,7.439-5.198,10.61-5.584c7.236-0.881,15.679,1.876,22.597,7.368C156.122,216.914,160.566,231.819,154.12,240.167z"/>
	<path id="XMLID_384_" d="M419.739,406.722c-3.309-2.494-8.012-1.836-10.504,1.473c-7.96,10.557-15.851,16.857-21.07,20.285   c-4.904,3.223-7.832,8.676-7.832,14.587V504.5c0,4.143,3.357,7.5,7.5,7.5s7.5-3.357,7.5-7.5v-61.434c0-0.845,0.4-1.611,1.068-2.05   c6.21-4.079,15.556-11.517,24.811-23.791C423.706,413.918,423.046,409.215,419.739,406.722z"/>
	<path id="XMLID_385_" d="M406.601,163.982c-1.161,0-2.32,0.044-3.475,0.132V75.126c0-20.48-16.662-37.143-37.143-37.143   c-8.29,0-15.956,2.731-22.144,7.339v-8.18C343.84,16.662,327.178,0,306.697,0c-18.457,0-33.813,13.533-36.668,31.197   c-6.268-4.826-14.114-7.699-22.618-7.699c-20.481,0-37.143,16.662-37.143,37.143v22.042c-5.173-1.607-10.497-2.653-15.898-3.069   c-4.133-0.331-7.736,2.771-8.055,6.901c-0.318,4.13,2.771,7.735,6.901,8.054c14.514,1.119,28.451,7.88,39.244,19.037   c1.413,1.461,3.358,2.285,5.391,2.285s3.978-0.825,5.391-2.285c11.817-12.216,27.666-19.222,43.486-19.222   c7.077,0,13.991,1.337,20.549,3.975c22.854,9.191,37.479,33.282,36.392,59.947c-0.083,2.041,0.67,4.026,2.084,5.5   c1.414,1.473,3.367,2.306,5.41,2.306c9.943,0.001,19.391,2.671,27.332,7.611c-5.065,4-9.243,9.032-12.243,14.724   c-12.761-6.272-30.284-3.695-44.291,7.425c-18.299,14.53-23.794,38.514-12.25,53.464c4.832,6.257,12.173,10.272,20.67,11.306   c1.511,0.185,3.038,0.274,4.577,0.274c8.808,0,17.953-2.977,26.025-8.482v14.389c-14.642,1.487-28.019,7.293-38.864,16.101   c-4.245-13.324-13.755-24.477-26.718-30.662c-7.086-3.38-12.336-9.577-14.402-17.003c-2.272-8.165-6.78-15.52-13.034-21.269   c-16.884-15.527-43.341-15.526-60.228-0.001c-6.254,5.75-10.761,13.105-13.034,21.27c-2.066,7.426-7.315,13.623-14.402,17.004   c-18.576,8.863-30.01,28.019-29.129,48.803c1.112,26.218,22.267,47.797,48.16,49.126c7.577,0.387,14.947-0.874,21.895-3.754   c10.72-4.443,22.529-4.443,33.249,0c6.13,2.54,12.583,3.823,19.223,3.822c0.888,0,1.779-0.022,2.672-0.068   c6.381-0.327,12.647-1.909,18.438-4.595v20.301c-5.669,1.843-11.552,2.941-17.509,3.247c-10.354,0.529-20.342-1.211-29.757-5.112   c-6.183-2.563-13.206-2.562-19.379-0.001c-9.418,3.901-19.442,5.639-29.756,5.113c-17.186-0.882-33.379-8.244-45.597-20.732   c-12.239-12.51-19.388-29.031-20.129-46.521c-0.21-4.953,0.1-9.964,0.92-14.893c0.654-3.934-1.883-7.691-5.776-8.554   c-9.808-2.173-19.341-6.775-27.572-13.311c-7.56-6.003-13.892-13.579-18.311-21.908c-1.941-3.659-6.48-5.053-10.141-3.11   c-3.659,1.94-5.051,6.48-3.11,10.14c5.38,10.142,13.069,19.349,22.235,26.627c8.148,6.47,17.381,11.388,27.021,14.428   c-0.326,3.737-0.411,7.489-0.252,11.216c0.899,21.195,9.562,41.217,24.394,56.377c5.383,5.502,11.411,10.173,17.898,13.961   c12.431,40.646,34.576,60.114,46.785,68.136c0.685,0.45,1.094,1.223,1.094,2.065V504.5c0,4.143,3.358,7.5,7.5,7.5   s7.5-3.357,7.5-7.5v-61.436c0-5.909-2.937-11.367-7.856-14.602c-9.224-6.06-25.069-19.839-36.282-47.534   c6.117,1.779,12.457,2.864,18.915,3.195c12.586,0.643,24.781-1.479,36.263-6.237c2.518-1.042,5.371-1.044,7.894,0.002   c10.163,4.211,20.906,6.346,31.933,6.346c1.428,0,2.883-0.037,4.331-0.11c5.664-0.291,11.271-1.168,16.744-2.601v33.95   c0,4.143,3.357,7.5,7.5,7.5s7.5-3.357,7.5-7.5v-75.356c0-32.353,26.321-58.674,58.674-58.674c4.143,0,7.5-3.357,7.5-7.5v-64.343   c0-13.389,8.928-25.426,21.72-29.304c0.027-0.008,0.054-0.011,0.081-0.019c2.86-0.859,5.827-1.295,8.817-1.295   c16.883,0,30.617,13.734,30.617,30.617v104.187c0,1.57-0.087,3.181-0.258,4.786c-0.016,0.149-0.027,0.299-0.034,0.449   c-1.041,22.604-5.01,42.866-11.794,60.224c-1.508,3.858,0.397,8.208,4.255,9.716c0.897,0.351,1.82,0.517,2.729,0.517   c2.998,0,5.83-1.811,6.987-4.771c7.359-18.828,11.665-40.62,12.797-64.776c0.212-2.055,0.318-4.12,0.318-6.144V209.6   C452.218,184.446,431.754,163.982,406.601,163.982z M275.602,335.21c-5.328,0.271-10.51-0.61-15.383-2.631   c-14.423-5.978-30.311-5.978-44.736,0c-4.872,2.021-10.047,2.901-15.382,2.631c-18.245-0.937-33.155-16.215-33.942-34.781   c-0.626-14.767,7.461-28.359,20.601-34.629c11.002-5.249,19.165-14.915,22.395-26.521c1.522-5.466,4.542-10.394,8.735-14.248   c11.194-10.293,28.73-10.293,39.923,0c4.193,3.854,7.214,8.781,8.735,14.248c3.23,11.605,11.394,21.271,22.395,26.52   c11.822,5.642,19.567,17.159,20.516,30.289c-6.768,9.049-11.496,19.699-13.526,31.27   C290.107,332.057,282.956,334.833,275.602,335.21z M237.856,98.088c-3.945-3.403-8.164-6.377-12.588-8.895V60.641   c0-12.209,9.934-22.143,22.143-22.143c12.205,0,22.136,9.927,22.142,22.131c0,0.005-0.001,0.009-0.001,0.014v20.9   C258.096,84.412,247.179,90.071,237.856,98.088z M312.874,84.442c-8.346-3.356-17.143-5.059-26.146-5.059   c-0.725,0-1.45,0.029-2.175,0.052l0.001-42.293c0-12.21,9.934-22.143,22.144-22.143c12.209,0,22.143,9.933,22.143,22.143   l-0.001,56.35C323.983,89.819,318.637,86.76,312.874,84.442z M343.754,108.735c0.05-0.35,0.085-0.705,0.085-1.069V75.145   c0-0.007,0.001-0.013,0.001-0.019c0-12.209,9.934-22.143,22.144-22.143c12.209,0,22.143,9.934,22.143,22.143v86.961   c-8.667-5.79-18.773-9.426-29.499-10.577C357.854,135.645,352.528,120.792,343.754,108.735z M354.79,238.382   c-6.918,5.494-15.362,8.241-22.599,7.369c-3.17-0.386-7.585-1.668-10.608-5.584c-6.446-8.348-2.002-23.253,9.705-32.549   c10.067-7.995,22.757-9.772,30.191-4.61c-0.321,2.164-0.496,4.364-0.496,6.592v22.539   C359.199,234.419,357.134,236.522,354.79,238.382z"/>
</g>















</svg>
