<svg height="511pt" viewBox="0 -21 511.9702 511" width="511pt" xmlns="http://www.w3.org/2000/svg"><path d="m204.773438 171.152344c-18.851563 0-34.132813 15.28125-34.132813 34.132812 0 18.851563 15.28125 34.132813 34.132813 34.132813 18.851562 0 34.132812-15.28125 34.132812-34.132813 0-18.851562-15.28125-34.132812-34.132812-34.132812zm0 51.199218c-9.425782 0-17.066407-7.640624-17.066407-17.066406 0-9.425781 7.640625-17.066406 17.066407-17.066406 9.425781 0 17.066406 7.640625 17.066406 17.066406 0 9.425782-7.640625 17.066406-17.066406 17.066406zm0 0"/><path d="m273.042969 205.285156c0 18.851563 15.28125 34.132813 34.132812 34.132813 18.851563 0 34.132813-15.28125 34.132813-34.132813 0-18.851562-15.28125-34.132812-34.132813-34.132812-18.851562 0-34.132812 15.28125-34.132812 34.132812zm34.132812-17.066406c9.425781 0 17.066407 7.640625 17.066407 17.066406 0 9.425782-7.640626 17.066406-17.066407 17.066406s-17.066406-7.640624-17.066406-17.066406c0-9.425781 7.640625-17.066406 17.066406-17.066406zm0 0"/><path d="m49.628906 187.628906c1.445313.1875 2.917969.332032 4.4375.425782-4.371094 29.386718-5.515625 59.160156-3.414062 88.789062 1.207031 21.625 3.988281 44.445312 23.265625 64.855469 1.261719 1.324219 2.667969 2.558593 4.027343 3.847656 2.660157 25.265625 12.757813 49.175781 29.011719 68.703125 30.457031 35.992188 80.265625 54.714844 148.054688 55.570312h1.960937c67.78125-.855468 117.582032-19.570312 148.054688-55.597656 16.257812-19.535156 26.355468-43.457031 29.011718-68.734375 1.359376-1.28125 2.75-2.507812 4.035157-3.859375 19.234375-20.332031 22.019531-43.152344 23.222656-64.773437 2.109375-29.683594.964844-59.503907-3.414063-88.9375 1.441407-.09375 3.003907-.082031 4.359376-.261719 13.183593-1.503906 25.429687-7.5625 34.628906-17.128906 25.335937-26.863282 12.101562-65.414063 7.765625-78.042969-6.546875-20.210937-17.308594-38.796875-31.574219-54.539063-14.585938-15.792968-33.214844-27.304687-53.871094-33.277343-8.769531-2.65625-17.871094-4.0625-27.03125-4.183594-34.664062.820313-67.777344 14.53125-92.871094 38.460937-14.320312-2.671874-28.84375-4.121093-43.40625-4.328124-14.507812.21875-28.96875 1.664062-43.230468 4.328124-25.09375-23.929687-58.207032-37.640624-92.871094-38.460937-9.152344.117187-18.246094 1.523437-27.007812 4.171875-20.667969 5.972656-39.316407 17.480469-53.921876 33.28125-14.234374 15.734375-24.976562 34.308594-31.511718 54.496094-4.34375 12.671875-17.578125 51.199218 7.773437 78.105468 9.167969 9.535157 21.375 15.578126 34.515625 17.089844zm342.359375 215.570313c-27.503906 32.527343-71.742187 48.699219-136.011719 49.550781-.136718 0-.25.070312-.386718.078125-.136719.007813-.253906-.085937-.398438-.085937-63.488281-.808594-107.726562-17.015626-135.238281-49.542969-25.8125-30.542969-27.953125-68.335938-25.214844-94.660157.859375-8.207031 3.632813-16.101562 8.097657-23.039062 7.289062-11.917969 19.539062-19.933594 33.375-21.847656 20.804687-3.097656 47.28125 5.625 68.597656 22.1875 3.492187 22.527344 20.085937 40.800781 42.171875 46.4375v61.59375c-17.332031 1.28125-59.433594 1.964844-80.851563-18.609375-10.59375-10.867188-15.273437-26.191407-12.554687-41.125.472656-4.6875-2.949219-8.871094-7.636719-9.34375-4.6875-.46875-8.871094 2.949219-9.34375 7.640625-3.265625 20.179687 3.359375 40.703125 17.808594 55.167968 20.90625 20.042969 54.996094 23.890626 78.164062 23.890626 7.765625.023437 15.527344-.417969 23.238282-1.320313 7.707031.902344 15.464843 1.34375 23.226562 1.320313 23.167969 0 57.257812-3.863282 78.164062-23.890626 14.441407-14.472656 21.050782-34.996093 17.769532-55.167968-.472656-4.691406-4.65625-8.109375-9.34375-7.640625-4.691406.472656-8.109375 4.65625-7.640625 9.34375 2.703125 14.941406-2 30.261719-12.609375 41.117187-21.429688 20.582032-63.523438 19.890625-80.863282 18.617188v-61.542969c22.277344-5.488281 39.078126-23.824219 42.597657-46.496094 21.335937-16.582031 47.789062-25.328125 68.632812-22.1875 13.839844 1.910157 26.09375 9.929688 33.382813 21.84375 4.460937 6.941407 7.234375 14.835938 8.089844 23.042969 2.742187 26.332031.597656 64.125-25.222657 94.667969zm-102.253906-119.644531c.074219.515624.199219 1.023437.375 1.515624-3.414063 16.691407-17.203125 29.273438-34.132813 31.148438-16.917968-1.871094-30.703124-14.425781-34.136718-31.097656.207031-.570313.34375-1.167969.410156-1.773438 2.152344-7.140625 18.363281-9.796875 33.726562-9.796875 15.519532 0 31.84375 2.707031 33.757813 10.003907zm124.738281-262.488282c17.667969 5.117188 33.601563 14.960938 46.082032 28.476563 12.613281 13.992187 22.117187 30.5 27.886718 48.433593 9.71875 28.296876 8.429688 47.625-4.011718 60.828126-6.484376 6.6875-15.09375 10.914062-24.355469 11.945312-3.925781.464844-7.882813.5625-11.828125.289062-11.722656-1.234374-23.175782-4.328124-33.925782-9.164062-14.304687-4.78125-26.003906-15.253906-32.332031-28.945312-6.546875-16.972657-.285156-36.90625 6.125-50.652344 5.394531-11.433594 12.117188-22.191406 20.027344-32.050782 2.277344-2.71875 2.617187-6.566406.855469-9.644531-.90625-2.925781-3.328125-5.132812-6.324219-5.757812-1.808594-.367188-41.976563-8.039063-63.734375 14.796875-6.078125-2.160156-12.332031-4.132813-18.835938-5.863282 20.515626-16.371093 45.820313-25.574218 72.058594-26.207031 7.5625.121094 15.078125 1.304688 22.3125 3.515625zm-37.546875 45.433594c-2.796875-1.621094-5.632812-3.160156-8.464843-4.574219-3.644532-1.859375-7.363282-3.617187-11.09375-5.273437 9.058593-4.730469 19.230468-6.910156 29.433593-6.308594-3.554687 5.214844-6.839843 10.605469-9.839843 16.15625zm-76.578125-10.027344c13.121094 2.59375 25.996094 6.304688 38.484375 11.09375 7.492188 2.761719 14.8125 5.972656 21.921875 9.609375 3.003906 1.5 5.976563 3.164063 8.894532 4.898438-8.484376 17.824219-9.777344 38.230469-3.601563 56.984375 7.910156 18.085937 23.007813 32.054687 41.652344 38.542968 10.4375 4.558594 21.40625 7.789063 32.648437 9.617188 4.730469 29.316406 6.027344 59.082031 3.863282 88.695312.097656 14.296876-3.074219 28.421876-9.273438 41.304688-.179688-3.621094-.445312-7.117188-.785156-10.429688-1.132813-10.890624-4.804688-21.363281-10.71875-30.574218-9.980469-16.019532-26.539063-26.800782-45.226563-29.449219-28.160156-4.179687-57.472656 8.335937-77.371093 22.375-6.539063-6.921875-19.59375-12.65625-44.859376-12.65625-25.269531 0-38.308593 5.726563-44.894531 12.621094-19.910156-14.035157-49.28125-26.539063-77.363281-22.367188-18.691406 2.648438-35.25 13.429688-45.226562 29.449219-5.910157 9.214844-9.570313 19.6875-10.695313 30.574219-.347656 3.320312-.605469 6.828125-.78125 10.457031-6.222656-12.886719-9.402344-27.023438-9.304687-41.328125-2.160157-29.617187-.863282-59.386719 3.867187-88.703125 11.242187-1.84375 22.214844-5.074219 32.65625-9.628906 18.648437-6.472656 33.75-20.4375 41.660156-38.527344 6.160157-18.679688 4.898438-39.011719-3.515625-56.789062 2.945313-1.707032 5.820313-3.601563 8.875-5.121094 7.117188-3.640625 14.445313-6.851563 21.949219-9.625 12.460937-4.761719 25.308594-8.449219 38.398437-11.023438 14.578126-2.964844 29.402344-4.570312 44.28125-4.789062 14.9375.210937 29.824219 1.8125 44.464844 4.789062zm-165.367187 10.035156c-2.992188-5.554687-6.277344-10.953124-9.839844-16.164062 10.203125-.605469 20.378906 1.574219 29.441406 6.308594-3.753906 1.65625-7.457031 3.414062-11.09375 5.238281-2.855469 1.445313-5.691406 2.984375-8.507812 4.617187zm-111.480469 31.429688c5.769531-17.914062 15.265625-34.402344 27.863281-48.386719 12.5-13.523437 28.457031-23.375 46.148438-28.492187 7.222656-2.210938 14.71875-3.390625 22.269531-3.507813 26.222656.628907 51.519531 9.820313 72.03125 26.171875-6.519531 1.707032-12.800781 3.703125-18.832031 5.863282-21.742188-22.835938-61.9375-15.164063-63.738281-14.796876-2.996094.625-5.417969 2.828126-6.320313 5.75-1.75 3.085938-1.410156 6.929688.851563 9.660157 7.921874 9.859375 14.648437 20.621093 20.035156 32.0625 6.402344 13.726562 12.664062 33.664062 6.121094 50.636719-6.324219 13.683593-18.015626 24.152343-32.316407 28.925781-10.707031 4.828125-22.113281 7.921875-33.792969 9.164062-4.023437.296875-8.066406.199219-12.074218-.289062-9.214844-1.023438-17.789063-5.226563-24.242188-11.886719-12.441406-13.210938-13.730468-32.539062-4.003906-60.875zm0 0"/><path d="m221.839844 145.550781c2.265625 0 4.433594-.898437 6.035156-2.5l17.066406-17.066406c3.234375-3.347656 3.1875-8.671875-.105468-11.960937-3.289063-3.292969-8.613282-3.339844-11.960938-.105469l-17.066406 17.066406c-2.441406 2.441406-3.167969 6.109375-1.847656 9.300781 1.320312 3.1875 4.429687 5.265625 7.878906 5.265625zm0 0"/><path d="m284.074219 143.050781c3.347656 3.234375 8.671875 3.1875 11.964843-.101562 3.289063-3.292969 3.335938-8.617188.101563-11.964844l-17.066406-17.066406c-3.347657-3.234375-8.671875-3.1875-11.960938.105469-3.292969 3.289062-3.339843 8.613281-.105469 11.960937zm0 0"/><path d="m141.796875 298.46875c1.027344.4375 2.128906.667969 3.246094.683594.570312-.015625 1.140625-.070313 1.707031-.171875.53125-.09375 1.050781-.265625 1.535156-.511719.542969-.1875 1.058594-.445312 1.535156-.769531l1.28125-1.023438c.75-.828125 1.359376-1.78125 1.789063-2.816406.914063-2.0625.914063-4.417969 0-6.484375-.429687-1.03125-1.039063-1.984375-1.789063-2.816406-.40625-.367188-.835937-.707032-1.28125-1.023438-.476562-.324218-.992187-.582031-1.535156-.765625-.484375-.25-1.003906-.421875-1.535156-.515625-1.664062-.347656-3.394531-.167968-4.953125.515625-1.042969.410157-2 1.019531-2.8125 1.789063-.753906.832031-1.359375 1.785156-1.792969 2.816406-.4375 1.027344-.667968 2.128906-.683594 3.242188.035157 2.261718.917969 4.421874 2.476563 6.058593.828125.753907 1.78125 1.359375 2.8125 1.792969zm0 0"/><path d="m125.5 301.625c-.40625-.367188-.832031-.707031-1.28125-1.023438-.472656-.324218-.992188-.582031-1.535156-.765624-.484375-.246094-1-.421876-1.535156-.511719-1.664063-.351563-3.394532-.171875-4.949219.511719-1.042969.410156-2 1.019531-2.816407 1.789062-.753906.832031-1.359374 1.785156-1.792968 2.816406-.4375 1.027344-.667969 2.128906-.683594 3.242188.035156 2.261718.917969 4.425781 2.476562 6.058594.828126.753906 1.78125 1.359374 2.816407 1.792968 1.027343.4375 2.128906.667969 3.242187.683594.574219-.015625 1.144532-.070312 1.707032-.171875.535156-.09375 1.050781-.265625 1.535156-.511719.542968-.1875 1.0625-.445312 1.535156-.765625l1.28125-1.027343c.753906-.828126 1.359375-1.78125 1.792969-2.8125.910156-2.066407.910156-4.421876 0-6.488282-.433594-1.03125-1.039063-1.984375-1.792969-2.816406zm0 0"/><path d="m372.964844 284.558594c-.8125-.769532-1.769532-1.378906-2.8125-1.789063-1.558594-.683593-3.289063-.863281-4.949219-.515625-.535156.09375-1.054687.265625-1.539063.515625-.542968.183594-1.058593.441407-1.535156.765625-.445312.316406-.875.65625-1.28125 1.023438-.75.832031-1.355468 1.785156-1.789062 2.816406-.910156 2.066406-.910156 4.421875 0 6.484375.433594 1.035156 1.039062 1.988281 1.789062 2.816406l1.28125 1.023438c.476563.324219.992188.582031 1.535156.769531.484376.246094 1.003907.417969 1.539063.511719.5625.101562 1.132813.15625 1.703125.171875 1.117188-.015625 2.21875-.246094 3.246094-.683594 1.03125-.433594 1.984375-1.039062 2.8125-1.792969 1.558594-1.636719 2.445312-3.796875 2.476562-6.058593-.011718-1.113282-.246094-2.214844-.683594-3.242188-.433593-1.03125-1.039062-1.984375-1.792968-2.816406zm0 0"/><path d="m398.566406 301.625c-.816406-.769531-1.769531-1.378906-2.816406-1.789062-1.554688-.683594-3.285156-.863282-4.949219-.511719-.535156.089843-1.050781.265625-1.535156.511719-.542969.183593-1.0625.441406-1.535156.765624-.449219.316407-.875.65625-1.28125 1.023438-.753907.832031-1.359375 1.785156-1.792969 2.816406-.910156 2.066406-.910156 4.421875 0 6.488282.433594 1.03125 1.039062 1.984374 1.792969 2.8125l1.28125 1.027343c.472656.320313.992187.578125 1.535156.765625.484375.246094 1 .417969 1.535156.511719.566407.101563 1.136719.15625 1.707031.171875 1.117188-.015625 2.21875-.246094 3.242188-.683594 1.035156-.433594 1.988281-1.039062 2.816406-1.792968 1.558594-1.632813 2.441406-3.796876 2.476563-6.058594-.015625-1.113282-.246094-2.214844-.683594-3.242188-.433594-1.03125-1.039063-1.984375-1.792969-2.816406zm0 0"/></svg>