<svg height="512pt" viewBox="0 0 512.20329 512" width="512pt" xmlns="http://www.w3.org/2000/svg">
    <path d="m504.570312 6.46875c-.988281-3.75-4.378906-6.367188-8.253906-6.367188-.214844 0-.835937.011719-1.691406.039063l-.238281.011719c-52 4.140625-100.777344 26.839844-137.433594 63.953125-32.890625-8.773438-66.8125-13.082031-100.851563-12.804688-34.015624-.273437-67.910156 4.027344-100.777343 12.785157-36.695313-37.085938-85.476563-59.773438-137.480469-63.933594l-.292969-.011719c-.84375-.027344-1.453125-.039063-1.664062-.039063-3.875 0-7.265625 2.617188-8.25 6.367188-17.726563 67.566406-1.304688 117.109375 16.972656 147.9375-16.542969 27.726562-25.03125 59.515625-24.507813 91.796875 1.125 47.605469 15.167969 94.011719 40.625 134.253906-15.859374 11.054688-29.253906 25.285157-39.324218 41.789063-1.699219 2.585937-1.867188 5.890625-.433594 8.632812 1.429688 2.742188 4.234375 4.496094 7.328125 4.582032 3.09375.085937 5.992187-1.511719 7.570313-4.171876 8.765624-14.359374 20.386718-26.765624 34.144531-36.449218 6.71875 9.691406 13.996093 18.984375 21.792969 27.832031-17.179688 17.039063-29.929688 38.027344-37.128907 61.128906-1.066406 2.917969-.460937 6.183594 1.574219 8.527344 2.039062 2.34375 5.191406 3.398437 8.230469 2.746094 3.035156-.652344 5.480469-2.902344 6.378906-5.875 6.324219-20.371094 17.488281-38.90625 32.539063-54.019531 45.125 45.746093 105.382812 76.921874 172.703124 76.921874 67.320313 0 127.578126-31.175781 172.703126-76.921874 15.050781 15.113281 26.214843 33.652343 32.539062 54.023437.898438 2.972656 3.34375 5.222656 6.378906 5.871094 3.039063.652343 6.191406-.398438 8.230469-2.742188 2.035156-2.347656 2.640625-5.613281 1.574219-8.53125-7.199219-23.101562-19.949219-44.089843-37.128906-61.125 7.769531-8.816406 15.023437-18.078125 21.722656-27.734375 13.792968 9.621094 25.445312 22 34.214844 36.347656 1.578124 2.660157 4.476562 4.257813 7.570312 4.171876 3.09375-.085938 5.898438-1.839844 7.328125-4.582032 1.433594-2.742187 1.265625-6.046875-.433594-8.632812-10.070312-16.503906-23.464843-30.734375-39.324219-41.789063 25.457032-40.242187 39.5-86.648437 40.625-134.253906.523438-32.28125-7.964843-64.070313-24.507812-91.796875 18.28125-30.828125 34.699219-80.371094 16.976562-147.9375zm-482.792968 14.492188c15.820312 9.3125 49.917968 31.886718 66.570312 62.039062 2.179688 3.847656 1.03125 8.722656-2.632812 11.199219-18.601563 12.78125-35.386719 28.023437-49.894532 45.3125-18.832031-36.527344-23.820312-78.632813-14.042968-118.550781zm473.257812 225.242187c-1.046875 44.566406-14.167968 88.011719-37.960937 125.707031-20.1875-10.390625-42.851563-15.003906-65.496094-13.339844-3.058594.34375-5.691406 2.300782-6.898437 5.128907-1.207032 2.828125-.800782 6.085937 1.066406 8.53125 1.863281 2.441406 4.902344 3.691406 7.945312 3.273437 18.625-1.085937 37.207032 2.6875 53.933594 10.949219-6.171875 8.84375-12.835938 17.328125-19.96875 25.414063-12.484375-9.507813-26.964844-16.054688-42.347656-19.148438-4.617188-.589844-8.859375 2.632812-9.527344 7.242188-.667969 4.605468 2.480469 8.902343 7.078125 9.648437 11.945313 2.515625 23.210937 7.558594 33.046875 14.789063-41.964844 42.0625-97.648438 70.636718-159.804688 70.636718s-117.839843-28.574218-159.804687-70.632812c9.832031-7.230469 21.097656-12.273438 33.039063-14.792969 4.582031-.757813 7.714843-5.042969 7.050781-9.636719-.667969-4.597656-4.882813-7.820312-9.492188-7.25-15.386719 3.089844-29.867187 9.636719-42.355469 19.144532-7.179687-8.140626-13.886718-16.683594-20.089843-25.589844 16.742187-8.347656 35.414062-12.066406 54.078125-10.769532 4.675781.578126 8.9375-2.742187 9.519531-7.421874.578125-4.675782-2.742187-8.9375-7.421875-9.519532-22.644531-1.664062-45.308594 2.949219-65.5 13.339844-23.789062-37.695312-36.910156-81.140625-37.957031-125.703125-.570313-30.703125 7.9375-60.890625 24.457031-86.777344 15.101562-19.722656 33.203125-36.960937 53.644531-51.078125 11.027344-7.390625 14.519531-22.023437 8.015625-33.597656-11.46875-19.261719-26.644531-36.058594-44.644531-49.417969 33.378906 10.636719 63.644531 29.289063 88.148437 54.328125 2.203126 2.234375 5.457032 3.074219 8.464844 2.1875 32.804688-9.261718 66.761719-13.800781 100.847656-13.480468 34.085938-.320313 68.046876 4.21875 100.851563 13.484374 3.039063.847657 6.304687.015626 8.566406-2.191406 24.460938-25.035156 54.6875-43.683594 88.03125-54.320312-17.996093 13.359375-33.164062 30.152344-44.628906 49.40625-6.503906 11.578125-3.011719 26.210937 8.019531 33.601562 20.441406 14.121094 38.542969 31.355469 53.644532 51.082032 16.515624 25.886718 25.019531 56.074218 24.449218 86.773437zm-18.652344-106.6875c-14.511718-17.289063-31.296874-32.53125-49.898437-45.3125-3.664063-2.476563-4.808594-7.351563-2.632813-11.199219 16.652344-30.152344 50.753907-52.726562 66.574219-62.039062 9.773438 39.917968 4.785157 82.019531-14.042969 118.550781zm0 0"/>
    <path d="m209.078125 298.886719c2.710937-1.355469 4.5-4.042969 4.707031-7.066407.191406-2.835937 4.265625-69.78125-32.46875-94.265624-7.460937-4.800782-15.921875-7.835938-24.738281-8.867188-.863281-.238281-1.757813-.339844-2.652344-.296875-2.367187-.242187-4.738281-.386719-7.125-.425781-.710937-.105469-1.433593-.113282-2.148437-.03125-21.796875 1.050781-43.164063 6.460937-62.832032 15.910156-2.710937 1.355469-4.503906 4.042969-4.710937 7.0625-.191406 2.839844-4.265625 69.785156 32.46875 94.269531 10.800781 6.734375 23.359375 10.105469 36.082031 9.683594.785156 0 1.570313-.046875 2.355469-.066406.191406.011719.378906.054687.570313.054687.316406.03125.609374.046875.851562.046875.871094.015625 1.738281-.058593 2.59375-.210937l.132812-.019532c.148438-.019531.300782-.046874.449219-.070312 19.59375-1.90625 38.703125-7.222656 56.464844-15.707031zm-59.9375-1.210938c-3.351563-1.3125-12.503906-16.382812-12.503906-46.78125 0-26.1875 6.980469-41.898437 11.429687-45.871093.988282.039062 1.960938.136718 2.9375.214843 5.027344 4.6875 11.230469 21.691407 11.230469 45.65625 0 28.140625-8.265625 44.800781-12.300781 46.726563-.265625.015625-.53125.042968-.792969.054687zm47.761719-11.949219c-8.007813 3.460938-16.28125 6.261719-24.742188 8.382813 4.976563-13.851563 7.398438-28.496094 7.140625-43.214844.082031-12.613281-1.632812-25.175781-5.101562-37.304687 21.339843 17.015625 22.871093 57.925781 22.703125 72.140625zm-102.914063-68.726562c10.621094-4.605469 21.714844-8.027344 33.085938-10.210938-5.210938 14.113282-7.753907 29.066407-7.507813 44.105469-.242187 15.027344 2.332032 29.960938 7.601563 44.035157-2.863281-.972657-5.59375-2.304688-8.125-3.957032-23.640625-15.757812-25.226563-59.238281-25.050781-73.972656zm0 0"/>
    <path d="m430.945312 203.847656c-19.777343-9.492187-41.265624-14.898437-63.179687-15.898437-.777344-.097657-1.566406-.085938-2.34375.035156-2.460937.054687-4.902344.230469-7.339844.5-.90625-.042969-1.8125.058594-2.6875.300781-8.535156 1.105469-16.71875 4.101563-23.949219 8.769532-36.734374 24.484374-32.660156 91.429687-32.46875 94.265624.207032 3.023438 2 5.710938 4.710938 7.066407 17.4375 8.316406 36.171875 13.597656 55.386719 15.617187.519531.113282 1.046875.191406 1.578125.230469.699218.117187 1.40625.171875 2.117187.164063.554688-.007813 1.109375-.042969 1.65625-.113282.894531.023438 1.785157.078125 2.675781.078125 12.722657.417969 25.28125-2.953125 36.085938-9.6875 36.730469-24.484375 32.65625-91.429687 32.464844-94.265625-.207032-3.023437-2-5.710937-4.707032-7.0625zm-67.984374 93.910156c-.21875-.03125-.433594-.054687-.660157-.074218-4.449219-2.230469-12.332031-19.617188-12.332031-46.789063 0-25.085937 6.453125-41.378906 11.347656-45.785156.914063-.085937 1.84375-.097656 2.761719-.140625 5.050781 4.371094 11.488281 21.59375 11.488281 45.925781 0 30.886719-9.398437 45.957031-12.605468 46.863281zm-25.078126-83.648437c-3.371093 11.96875-5.046874 24.351563-4.980468 36.785156-.257813 14.703125 2.195312 29.324219 7.230468 43.136719-8.304687-2.191406-16.4375-4.992188-24.332031-8.378906-.332031-18.542969 3.128907-55.542969 22.082031-71.542969zm55.835938 76.867187c-2.726562 1.78125-5.675781 3.199219-8.769531 4.21875 5.335937-14.148437 7.945312-29.179687 7.6875-44.300781.25-15.109375-2.328125-30.136719-7.605469-44.300781 11.605469 2.285156 22.933594 5.800781 33.792969 10.484375.347656 19.503906-3.457031 59.46875-25.105469 73.898437zm0 0"/>
    <path d="m330.820312 369.667969c-1.566406 1.636719-2.417968 3.824219-2.367187 6.085937.046875 2.261719.996094 4.414063 2.632813 5.976563 8.769531 7.148437 12.265624 18.941406 8.808593 29.710937-5.210937 10.402344-16.304687 16.5-27.875 15.328125-11.492187.679688-22.269531-5.589843-27.359375-15.914062-4.460937-7.835938-11.554687-13.835938-20.023437-16.933594v-12.039063c1.605469-.824218 3.070312-1.898437 4.339843-3.175781l33.816407-35.363281c4.484375-4.550781 5.757812-11.363281 3.226562-17.226562-2.824219-6.34375-9.164062-10.390626-16.109375-10.28125h-67.617187c-6.945313-.113282-13.285157 3.933593-16.109375 10.277343-2.535156 5.863281-1.261719 12.679688 3.222656 17.230469l33.816406 35.355469c1.273438 1.28125 2.738282 2.355469 4.34375 3.179687v12.078125c-8.308594 3.132813-15.277344 9.050781-19.710937 16.746094-5.179688 10.40625-16.0625 16.722656-27.671875 16.066406-11.570313 1.171875-22.664063-4.925781-27.875-15.328125-3.449219-10.773437.046875-22.558594 8.816406-29.707031 2.207031-2.105469 3.117188-5.230469 2.394531-8.191406-.726562-2.960938-2.976562-5.3125-5.902343-6.167969-2.925782-.855469-6.085938-.082031-8.289063 2.027344-14.664063 11.628906-19.832031 31.574218-12.664063 48.863281 7.167969 17.285156 24.929688 27.722656 43.519532 25.570313 17.117187.65625 33.164062-8.308594 41.574218-23.226563 5.320313-7.46875 7.984376-10.824219 14.351563-10.90625 6.617187.082031 9.285156 3.46875 14.617187 11.007813 8.308594 14.871093 24.269532 23.808593 41.292969 23.125 18.585938 2.144531 36.339844-8.289063 43.507813-25.570313 7.167968-17.285156 2.007812-37.222656-12.640625-48.859375-1.636719-1.566406-3.824219-2.417969-6.089844-2.367188-2.261719.046876-4.414063.992188-5.976563 2.628907zm-107.785156-36.765625 66.515625-.40625-32.90625 34.410156c-.339843.175781-.746093.175781-1.085937 0zm0 0"/>
    <path d="m137.84375 162.148438c50.300781-7.167969 58.417969 18 58.808594 19.339843 1.242187 4.480469 5.84375 7.144531 10.351562 5.984375 4.503906-1.160156 7.25-5.714844 6.171875-10.238281-.414062-1.695313-11.097656-41.527344-77.75-31.976563-3.066406.375-5.695312 2.378907-6.867187 5.238282-1.171875 2.863281-.703125 6.132812 1.222656 8.550781 1.929688 2.417969 5.011719 3.605469 8.0625 3.101563zm0 0"/>
    <path d="m305.109375 187.472656c4.527344 1.203125 9.175781-1.457031 10.433594-5.96875.316406-1.089844 8.277343-26.5625 58.816406-19.355468 3.050781.5 6.132813-.6875 8.0625-3.105469 1.925781-2.417969 2.394531-5.6875 1.222656-8.546875-1.171875-2.863282-3.800781-4.867188-6.867187-5.238282-66.609375-9.519531-77.324219 30.28125-77.75 31.972657-1.121094 4.503906 1.59375 9.070312 6.082031 10.242187zm0 0"/>
</svg>