<svg id="Layer_1" enable-background="new 0 0 128 128" viewBox="0 0 128 128" xmlns="http://www.w3.org/2000/svg"><g><path d="m51.5 49.4c0 3.2 2.2 6 5.3 6.8v2.4c0 .5-.4.9-.9.9s-.9-.4-.9-.9c0-1-.8-1.8-1.8-1.8s-1.8.8-1.8 1.8c0 2.5 2 4.4 4.4 4.4 1 0 1.9-.3 2.7-.9.8.6 1.7.9 2.7.9 2.4 0 4.4-2 4.4-4.4 0-1-.8-1.8-1.8-1.8s-1.8.8-1.8 1.8c0 .5-.4.9-.9.9s-.9-.4-.9-.9v-2.4c3.1-.8 5.2-3.6 5.3-6.8.1-1.1-.3-2.2-1.1-3-1.2-1.2-2.9-1.1-4.6-1-.8 0-1.7 0-2.5 0-1.8-.1-3.4-.1-4.6 1-.8.8-1.2 1.9-1.2 3zm3.6-.5c.7-.1 6.2-.1 6.9-.1.3 2.8-1.8 4-3.4 4-2 .1-3.5-1.1-3.5-3.9z"/><path d="m45.6 41.4c0-1.3 1.1-2.4 2.4-2.4s2.4 1.1 2.4 2.4c0 1 .8 1.8 1.8 1.8s1.8-.8 1.8-1.8c0-3.2-2.6-5.9-5.9-5.9s-5.9 2.6-5.9 5.9c0 1 .8 1.8 1.8 1.8s1.6-.8 1.6-1.8z"/><path d="m64.9 43.1c1 0 1.7-.8 1.8-1.8 0-1.3 1.1-2.4 2.4-2.4s2.4 1.1 2.4 2.4c0 1 .8 1.8 1.8 1.8s1.8-.8 1.8-1.8c0-3.2-2.6-5.9-5.9-5.9s-5.9 2.6-5.9 5.9c-.1 1.1.7 1.8 1.6 1.8z"/><path d="m100.7 75.2c-.8-.5-1.9-.2-2.4.6s-.2 1.9.6 2.4c3.5 2 5.4 4.7 5.3 7.6 0 2.3-1.3 4.5-3.3 5.6-2.1 1.1-4.7 1-6.7-.4-2.5-1.7-5.6-2.3-8.6-1.7-1.5.4-2.9 1.1-4.1 2l-1.5-19.7c.6-.5 1.1-1 1.6-1.5l3.9 3.6c.7.7 1.8.6 2.5-.1s.6-1.8-.1-2.5l-4-3.7c.8-1 1.5-2 2.1-3.1l4.4 2.8c.8.5 1.9.3 2.4-.5s.3-1.9-.5-2.4l-4.7-3c.5-1.1.9-2.2 1.3-3.4l5.4 2.4c.9.4 1.9 0 2.3-.8.4-.9 0-1.9-.8-2.3h-.1l-5.9-2.6c1.3-6.9 0-14.1-3.6-20.2 3-5.5 4.1-11.9 3.2-18.1-.1-.9-1-1.6-1.9-1.5-5.5.8-10.6 3.3-14.6 7.1-9-4.4-19.6-4.4-28.6 0-4.1-3.8-9.2-6.3-14.7-7.2-.9-.1-1.8.6-1.9 1.5-.9 6.2.2 12.6 3.2 18.1-3.6 6.1-4.8 13.2-3.6 20.2l-6 2.6c-.9.4-1.3 1.4-.9 2.3.3.6.9 1 1.6 1 .2 0 .5-.1.7-.2l5.4-2.4c.4 1.2.8 2.3 1.3 3.4l-4.7 3c-.8.5-1.1 1.6-.5 2.4s1.6 1.1 2.4.5l4.4-2.8c.6 1.1 1.4 2.1 2.1 3.1l-4 3.7c-.7.7-.8 1.8-.1 2.5s1.8.8 2.5.1l3.9-3.6c.5.5 1.1 1 1.6 1.5l-2.2 29.8c-4.6 1.3-7.8 5.5-7.8 10.3 0 1 .8 1.7 1.8 1.8h59.5c1 0 1.8-.8 1.8-1.8 0-4.8-3.2-9-7.8-10.3l-.4-5.3c1.1-1.6 2.7-2.7 4.6-3.3 2.1-.4 4.2 0 5.9 1.2 4.5 3 10.7 1.9 13.7-2.7 1.1-1.6 1.7-3.5 1.7-5.5 0-2.3-.9-6.9-7.1-10.5zm-14.5-56.8c.3 4.3-.4 8.5-2.1 12.5-2.2-2.9-4.9-5.3-8-7.3 2.9-2.5 6.4-4.2 10.1-5.2zm-55.3 0c3.7.9 7.2 2.7 10.1 5.2-3.1 1.9-5.7 4.4-8 7.3-1.7-3.9-2.5-8.2-2.1-12.5zm12.8 41.7c-.7-.7-1.8-.8-2.5-.1l-5.5 5.1c-.6-.8-1.2-1.7-1.8-2.6l6.4-4.1c.8-.5 1-1.6.5-2.4s-1.6-1-2.4-.5l-6.1 3.9c-.4-.9-.8-1.9-1-2.9l6.4-2.8c.9-.4 1.3-1.4 1-2.3s-1.4-1.3-2.3-1h-.1l-5.8 2.5c-.2-1.3-.3-2.5-.3-3.8 0-14.9 12.7-27.1 28.3-27.1s28.3 12.1 28.3 27.1c0 1.3-.1 2.5-.3 3.8l-5.8-2.5c-.9-.4-1.9 0-2.3.8-.4.9 0 1.9.8 2.3h.1l6.4 2.8c-.3 1-.6 2-1 2.9l-6.1-3.9c-.8-.5-1.9-.3-2.4.5s-.3 1.9.5 2.4l6.4 4.1c-.5.9-1.1 1.8-1.8 2.6l-5.4-4.9c-.7-.6-1.8-.5-2.5.2-.6.7-.6 1.7.1 2.4l5.6 5.1c-11.4 11.3-29.7 11.3-41.1 0l5.6-5.1c.7-.7.7-1.8.1-2.5zm14.8 19.6c6.5 0 12.8-1.9 18.2-5.5l2 26.8h-9.6v-7.1c0-5.8-4.7-10.6-10.6-10.6s-10.5 4.8-10.5 10.6v7.1h-9.6l2-26.8c5.3 3.6 11.7 5.5 18.1 5.5zm-7 21.3v-7.1c0-3.9 3.2-7.1 7.1-7.1s7.1 3.2 7.1 7.1v7.1zm34.8 8.9h-55.6c.8-3.2 3.7-5.4 7-5.4h41.7c3.3 0 6.1 2.2 6.9 5.4z"/></g></svg>