<svg id="Capa_1" enable-background="new 0 0 512 512" height="512" viewBox="0 0 512 512" width="512" xmlns="http://www.w3.org/2000/svg"><path d="m137.153 78.811c-2.096-5.031-8.005-7.494-13.05-5.41-5.034 2.079-7.498 8.03-5.41 13.06 2.09 5.034 8.02 7.498 13.06 5.41 5.026-2.082 7.494-8.037 5.4-13.06z"/><path d="m484.817 306.952c-6.165-7.846-15.426-12.345-25.409-12.345-11.719 0-22.578 6.325-28.333 16.5-6.641 11.716-5.698 25.999 2.407 36.396 2.106 2.697 3.652 5.776 4.588 9.131 1.955 7.065.921 14.407-2.918 20.685-3.286 5.39-8.411 9.395-14.45 11.285-4.803 1.513-9.82 1.615-14.553.359-2.555-32.379-18.986-62.633-45.081-82.31l-85.415-76.893c-6.709-6.04-11.916-13.707-15.056-22.171l-15.562-41.952 29.712-104.147c1.055-3.697-.103-7.671-2.979-10.223s-6.959-3.229-10.504-1.743l-51.319 21.518-.363-.978v-60.063c0-4.12-2.527-7.818-6.365-9.316-3.839-1.498-8.203-.488-10.993 2.543l-32.26 35.044h-32.513c-10.749 0-20.994 4.622-28.107 12.682l-4.402 4.988c-3.318 3.76-8.098 5.916-13.112 5.916h-33.866c-20.057 0-36.374 16.317-36.374 36.374 0 9.078 3.366 17.773 9.477 24.486l18.131 19.916-25.574 10.723c-3.528 1.479-5.903 4.841-6.118 8.661s1.768 7.427 5.108 9.292l86.983 48.585c-.813 1.752-1.677 3.742-2.566 5.975-3.529 8.017-5.724 16.842-7.519 25.388-1.93 9.188-3.149 18.521-3.78 27.886-.356 5.293-.533 10.604-.533 15.909v42.331c0 5.523 4.477 10 10 10s10-4.477 10-10v-19.445c25.691-1.592 46.107-22.988 46.107-49.073 0-20.377-12.292-37.969-30.201-45.401l107.64-44.238 6.64 17.899c-22.581 11.36-37.121 35.13-36.3 61.003 1.092 34.421 28.9 62.395 63.31 63.685 7.784.287 15.459-.77 22.804-3.155 1.423-.462 2.925-.242 3.921.572 6.581 5.388 14.894 8.354 23.407 8.354 10.904 0 20.977-4.778 27.857-12.644l7.633 6.872c.226.203.46.396.703.577 23.631 17.666 37.75 45.813 37.787 75.314.006 4.053.076 8.117-.211 12.162-.537 7.574-2.024 15.072-4.471 22.262-11.845 34.779-44.831 59.866-83.568 59.866-.106 0-.211.001-.316.005h-.766c6.933-8.842 11.082-19.966 11.082-32.048 0-5.523-4.477-10-10-10s-10 4.477-10 10c0 17.671-14.376 32.048-32.048 32.048h-48.717v-2.114c0-6.029 4.071-11.315 9.9-12.854l21.881-5.778c6.23-1.661 9.344-9.008 6.137-14.626l-13.177-23.09c-12.626-22.125-5.629-50.088 15.93-63.66 14.739-9.278 33.327-9.743 48.51-1.212l43.605 24.499c4.815 2.705 10.911.995 13.617-3.82 2.705-4.815.995-10.912-3.82-13.617l-43.605-24.499c-21.585-12.127-48.009-11.466-68.962 1.723-18.988 11.953-30.019 31.761-31.404 52.581l-39.835-51.632c-2.498-3.237-6.715-4.627-10.646-3.512-3.933 1.116-6.791 4.514-7.217 8.58l-11.163 106.642c-.005.054-.011.108-.016.163-1.318 14.949-13.628 26.222-28.635 26.222h-40.837v-3.052c0-5.803 3.713-10.891 9.239-12.661l21.255-6.807c4.141-1.326 6.95-5.176 6.95-9.523v-34.696c0-5.523-4.477-10-10-10s-10 4.477-10 10v27.398l-14.305 4.582c-13.84 4.432-23.139 17.175-23.139 31.708v13.052c0 5.523 4.477 10 10 10h50.839c25.419 0 46.276-19.074 48.55-44.381l8.553-81.714 53.901 69.864c-4.621 1.221-9.398 2.19-13.697 4.339-6.825 3.412-12.357 9.189-15.485 16.148-1.922 4.277-2.924 8.946-2.924 13.635v12.114c0 5.523 4.477 10 10 10h58.717 42.048c.111 0 .222-.002.332-.005 41.66-.124 77.852-23.905 95.834-58.585 6.01 1.241 12.129 1.882 18.282 1.882 10.787 0 21.472-1.905 31.756-5.662 17.519-6.396 33.011-18.376 43.625-33.733 23.045-33.349 21.731-77.13-3.269-108.946zm-235.012-230.936-16.526 57.927-16.372-44.133zm-213.948 33.238c-2.75-3.021-4.266-6.936-4.266-11.022 0-9.029 7.345-16.374 16.374-16.374h33.866c10.75 0 20.995-4.623 28.107-12.682l4.402-4.988c3.319-3.76 8.098-5.916 13.113-5.916h36.899c2.796 0 5.464-1.17 7.357-3.228l17.873-19.416v36.229c0 1.187.211 2.365.625 3.478l1.278 3.445-132.712 55.647zm21.155 47.599 41.671 8.047 2.818 33.149-61.206-34.187zm74.294 112.013c0 15.05-11.454 27.475-26.103 29.017 0-14.85 1.074-29.638 4.256-44.171.892-4.072 1.928-8.116 3.178-12.093 11.033 4.215 18.669 14.867 18.669 27.247zm-9.438-67.338-3.899-45.86c-.379-4.459-3.674-8.123-8.068-8.971l-19.629-3.791 108.175-45.356 23.338 62.914zm190.659 106.058c-3.964 0-7.677-1.324-10.738-3.83-4.291-3.512-9.603-5.348-15.066-5.348-2.563 0-5.16.404-7.699 1.229-5.105 1.657-10.447 2.399-15.879 2.191-23.952-.897-43.309-20.371-44.068-44.333-.548-17.275 8.725-33.206 23.336-41.465 4.303 10.88 11.165 20.765 19.86 28.593l63.242 56.94c-3.163 3.741-7.877 6.023-12.988 6.023zm159.107 96.939c-8.281 11.981-20.367 21.328-34.033 26.318-8.081 2.952-16.457 4.449-24.896 4.449-3.562 0-7.11-.27-10.62-.805 2.413-8.148 3.846-16.609 4.279-25.096 6.734.952 13.656.395 20.328-1.708 10.654-3.333 19.723-10.42 25.528-19.943 6.752-11.04 8.572-23.982 5.118-36.463-1.648-5.907-4.372-11.319-8.09-16.08-3.062-3.927-3.374-9.646-.771-14.237 2.251-3.979 6.337-6.355 10.93-6.355 2.236 0 6.468.611 9.683 4.702 19.551 24.882 20.573 59.129 2.544 85.218z"/><path d="m91.373 389.99c3.928 1.636 8.62.529 11.398-2.7 2.728-3.173 3.178-7.814 1.123-11.454-4.572-8.098-17.223-5.728-18.585 3.458-.667 4.494 1.881 8.952 6.064 10.696z"/></svg>