<svg height="512" viewBox="0 0 128 128" width="512" xmlns="http://www.w3.org/2000/svg"><g><path d="m112.58 11.25h-26.843v-.25a1.75 1.75 0 0 0 -1.75-1.75h-10.6a6.262 6.262 0 0 0 -6-4.5h-6.771a6.262 6.262 0 0 0 -6 4.5h-10.6a1.75 1.75 0 0 0 -1.753 1.75v.25h-26.843a1.75 1.75 0 0 0 -1.75 1.75v108.5a1.75 1.75 0 0 0 1.75 1.75h97.16a1.75 1.75 0 0 0 1.75-1.75v-108.5a1.75 1.75 0 0 0 -1.75-1.75zm-68.567 14.5h39.974a1.75 1.75 0 0 0 1.75-1.75v-3.25h19.093v93h-81.66v-93h19.093v3.25a1.75 1.75 0 0 0 1.75 1.75zm1.75-13h10.353a1.75 1.75 0 0 0 1.75-1.75 2.753 2.753 0 0 1 2.75-2.75h6.768a2.753 2.753 0 0 1 2.75 2.75 1.75 1.75 0 0 0 1.75 1.75h10.353v9.5h-36.474zm65.067 107h-93.66v-105h25.093v2.5h-20.843a1.75 1.75 0 0 0 -1.75 1.75v96.5a1.75 1.75 0 0 0 1.75 1.75h85.16a1.75 1.75 0 0 0 1.75-1.75v-96.5a1.75 1.75 0 0 0 -1.75-1.75h-20.843v-2.5h25.093z"/><path d="m100.577 51.875a1.75 1.75 0 0 0 1.75-1.75v-9.25a1.75 1.75 0 0 0 -3.5 0v9.25a1.75 1.75 0 0 0 1.75 1.75z"/><path d="m54.25 76.808a1.75 1.75 0 0 0 1.75 1.75h31.667a1.75 1.75 0 0 0 0-3.5h-31.667a1.749 1.749 0 0 0 -1.75 1.75z"/><path d="m87.667 84.058h-31.667a1.75 1.75 0 1 0 0 3.5h31.667a1.75 1.75 0 0 0 0-3.5z"/><path d="m87.667 93.058h-31.667a1.75 1.75 0 1 0 0 3.5h31.667a1.75 1.75 0 0 0 0-3.5z"/><path d="m87.667 102.058h-31.667a1.75 1.75 0 1 0 0 3.5h31.667a1.75 1.75 0 0 0 0-3.5z"/><path d="m38.583 76.808a1.75 1.75 0 0 0 1.75 1.75h7.167a1.75 1.75 0 0 0 0-3.5h-7.167a1.749 1.749 0 0 0 -1.75 1.75z"/><path d="m47.5 84.058h-7.167a1.75 1.75 0 0 0 0 3.5h7.167a1.75 1.75 0 0 0 0-3.5z"/><path d="m47.5 93.058h-7.167a1.75 1.75 0 0 0 0 3.5h7.167a1.75 1.75 0 0 0 0-3.5z"/><path d="m47.5 102.058h-7.167a1.75 1.75 0 0 0 0 3.5h7.167a1.75 1.75 0 0 0 0-3.5z"/><path d="m54.842 58.173c-.828 3.282.11 6.621 4.358 6.621 2.509 0 2.317-2.946 4.8-2.946s2.291 2.946 4.8 2.946c4.248 0 5.186-3.337 4.358-6.621-.324-1.288-2.317-9.713-9.158-9.713s-8.834 8.425-9.158 9.713z"/><path d="m68.574 45.325c2.141.6 4.576-1.433 5.439-4.532s-.175-6.093-2.313-6.693-4.576 1.433-5.438 4.532.171 6.098 2.312 6.693z"/><path d="m73.261 50.713c1.133 1.134 3.272.833 4.777-.672s1.806-3.644.672-4.777-3.272-.833-4.777.672-1.806 3.644-.672 4.777z"/><path d="m59.426 45.325c2.141-.6 3.178-3.591 2.315-6.689s-3.3-5.128-5.438-4.532-3.178 3.591-2.316 6.689 3.298 5.128 5.439 4.532z"/><path d="m54.739 50.713c1.134-1.133.833-3.272-.672-4.777s-3.644-1.806-4.777-.672-.833 3.272.672 4.777 3.644 1.806 4.777.672z"/></g></svg>