<svg height="512pt" viewBox="-71 0 512 512" width="512pt" xmlns="http://www.w3.org/2000/svg"><path d="m264.09375 405.230469c11.203125-12.121094 21.984375-25.15625 31.503906-37.914063 47.011719-63.007812 73.972656-129.027344 73.972656-181.136718 0-48.828126-20.304687-97.042969-55.707031-132.28125-34.941406-34.777344-80.464843-53.898438-128.195312-53.898438-.53125 0-1.070313 0-1.601563 0-33.40625 0-67.820312 10.203125-96.988281 28.765625-4.65625 2.964844-6.03125 9.144531-3.066406 13.804687 2.964843 4.660157 9.148437 6.03125 13.804687 3.066407 26-16.546875 56.597656-25.636719 86.335938-25.636719h1.421875c42.492187 0 83.015625 17.054688 114.179687 48.074219 31.660156 31.511719 49.816406 74.558593 49.816406 118.105469 0 47.886718-25.511718 109.550781-70 169.175781-13.585937 18.207031-26.738281 33.355469-38.78125 45.574219-.621093.492187-1.195312 1.058593-1.691406 1.695312-25.511718 25.527344-45.820312 37.714844-54.3125 37.714844-8.488281 0-28.800781-12.1875-54.308594-37.710938-.496093-.640625-1.070312-1.207031-1.695312-1.695312-12.042969-12.222656-25.191406-27.371094-38.777344-45.578125-44.488281-59.625-70.003906-121.289063-70.003906-169.175781 0-30.539063 8.566406-60.542969 24.773438-86.765626 2.902343-4.699218 1.449218-10.859374-3.25-13.765624-4.695313-2.902344-10.859376-1.449219-13.761719 3.25-18.164063 29.386718-27.761719 63.023437-27.761719 97.277343 0 52.109375 26.960938 118.132813 73.972656 181.136719 9.519532 12.761719 20.300782 25.796875 31.503906 37.917969-22.726562 11.402343-35.46875 27.390625-35.46875 45.109375 0 17.808594 12.878907 33.96875 36.265626 45.496094 21.140624 10.425781 49.023437 16.164062 78.515624 16.164062 29.488282 0 57.371094-5.738281 78.511719-16.164062 23.382813-11.527344 36.265625-27.6875 36.265625-45.496094 0-17.71875-12.742187-33.707032-35.472656-45.109375zm-79.308594 86.769531c-55.855468 0-94.777344-21.957031-94.777344-41.660156 0-10.707032 11.441407-21.890625 30.257813-29.910156 23.710937 23.046874 47.699219 39.910156 64.519531 39.910156 16.820313 0 40.808594-16.863282 64.519532-39.910156 18.816406 8.019531 30.257812 19.203124 30.257812 29.910156 0 19.703125-38.921875 41.660156-94.777344 41.660156zm0 0"/><path d="m299.433594 256.382812c4.886718 2.578126 10.9375.703126 13.511718-4.183593 10.875-20.644531 16.625-43.949219 16.625-67.40625 0-79.832031-64.949218-144.785157-144.785156-144.785157-79.835937 0-144.785156 64.953126-144.785156 144.785157 0 79.835937 64.949219 144.785156 144.785156 144.785156 23.460938 0 46.765625-5.75 67.40625-16.625 4.882813-2.574219 6.757813-8.625 4.183594-13.511719-2.574219-4.886718-8.625-6.753906-13.511719-4.183594-17.773437 9.367188-37.855469 14.320313-58.078125 14.320313-68.808594 0-124.785156-55.976563-124.785156-124.785156 0-68.804688 55.976562-124.785157 124.785156-124.785157s124.785156 55.980469 124.785156 124.785157c0 20.21875-4.953124 40.300781-14.320312 58.082031-2.574219 4.886719-.699219 10.933594 4.183594 13.507812zm0 0"/><path d="m54.75 70.160156c1.871094 1.558594 4.140625 2.320313 6.398438 2.320313 2.863281 0 5.707031-1.226563 7.6875-3.601563l.003906-.003906c3.535156-4.242188 2.960937-10.546875-1.28125-14.082031-4.246094-3.535157-10.554688-2.960938-14.089844 1.285156-3.535156 4.242187-2.960938 10.546875 1.28125 14.082031zm0 0"/><path d="m273.023438 273.027344-.003907.003906c-3.90625 3.90625-3.902343 10.234375.003907 14.140625 1.949218 1.953125 4.507812 2.929687 7.070312 2.929687 2.558594 0 5.121094-.976562 7.074219-2.929687 3.902343-3.90625 3.902343-10.238281 0-14.144531-3.90625-3.902344-10.238281-3.902344-14.144531 0zm0 0"/><path d="m166 277.890625c6.0625-.304687 12.328125-.613281 18.785156-.613281 6.457032 0 12.722656.3125 18.785156.613281 5.515626.273437 10.820313.539063 15.847657.539063 12.828125 0 23.832031-1.722657 31.882812-9.382813 6.753907-6.421875 10.035157-15.859375 10.035157-28.84375 0-42.207031-34.339844-76.546875-76.550782-76.546875-42.210937 0-76.550781 34.339844-76.550781 76.546875 0 12.984375 3.28125 22.421875 10.035156 28.84375 11.203125 10.660156 28.128907 9.820313 47.730469 8.84375zm18.785156-94.234375c31.183594 0 56.550782 25.367188 56.550782 56.546875 0 7.113281-1.285157 11.941406-3.820313 14.355469-4.992187 4.746094-18.570313 4.070312-32.953125 3.355468-6.304688-.3125-12.824219-.640624-19.777344-.640624s-13.472656.324218-19.777344.640624c-14.382812.714844-27.960937 1.390626-32.953124-3.355468-2.535157-2.414063-3.820313-7.242188-3.820313-14.355469 0-31.179687 25.371094-56.546875 56.550781-56.546875zm0 0"/><path d="m215.371094 123.820312c0-18.007812-13.722656-32.65625-30.585938-32.65625-16.863281 0-30.582031 14.648438-30.582031 32.65625 0 18.007813 13.71875 32.65625 30.582031 32.65625 16.863282 0 30.585938-14.648437 30.585938-32.65625zm-41.167969 0c0-6.859374 4.847656-12.65625 10.582031-12.65625s10.582032 5.796876 10.582032 12.65625c0 6.859376-4.847657 12.65625-10.582032 12.65625s-10.582031-5.792968-10.582031-12.65625zm0 0"/><path d="m136.554688 134.355469c-9.003907-15.59375-28.210938-21.421875-42.8125-12.988281-14.605469 8.429687-19.164063 27.980468-10.160157 43.570312 4.273438 7.402344 10.964844 12.863281 18.847657 15.386719 3.132812 1.003906 6.3125 1.5 9.441406 1.5 5.085937 0 10.050781-1.3125 14.527344-3.894531 14.605468-8.433594 19.160156-27.980469 10.15625-43.574219zm-20.15625 26.253906c-2.289063 1.320313-5.089844 1.558594-7.875.664063-3.132813-1.003907-5.839844-3.253907-7.621094-6.335938-3.488282-6.042969-2.214844-13.335938 2.835937-16.253906 5.058594-2.917969 12.007813-.371094 15.496094 5.671875s2.21875 13.335937-2.835937 16.253906zm0 0"/><path d="m275.832031 121.363281c-7.234375-4.175781-15.746093-5.023437-23.972656-2.394531-7.878906 2.523438-14.574219 7.984375-18.84375 15.386719-9.003906 15.59375-4.449219 35.140625 10.15625 43.574219 4.542969 2.621093 9.523437 3.863281 14.511719 3.863281 11.046875 0 22.101562-6.109375 28.304687-16.855469 9.003907-15.59375 4.445313-35.140625-10.15625-43.574219zm-7.164062 33.574219c-3.492188 6.042969-10.441407 8.589844-15.496094 5.671875s-6.324219-10.210937-2.835937-16.253906c1.78125-3.082031 4.484374-5.332031 7.617187-6.335938 1.113281-.355469 2.222656-.53125 3.304687-.53125 1.632813 0 3.195313.402344 4.574219 1.199219 5.050781 2.917969 6.324219 10.207031 2.835938 16.25zm0 0"/></svg>