<svg id="Capa_1" enable-background="new 0 0 480.078 480.078" height="512" viewBox="0 0 480.078 480.078" width="512" xmlns="http://www.w3.org/2000/svg"><path d="m440.627 320.064c7.729-.008 13.992-6.271 14-14v-36c-.008-7.729-6.271-13.992-14-14h-82v-24h8c13.248-.015 23.985-10.752 24-24v-48c-.015-13.248-10.752-23.985-24-24h-122.047l9.468-19.1c1.961-3.957.345-8.754-3.611-10.718l-21.482-10.663 17.784-35.788 14.333 7.115c11.873 5.893 26.275 1.046 32.169-10.826s1.046-26.275-10.827-32.169l-42.994-21.345c-11.838-5.962-26.268-1.198-32.23 10.64s-1.198 26.268 10.64 32.23c.083.042.166.083.249.124l14.328 7.113-17.78 35.787-21.517-10.677c-3.958-1.964-8.758-.348-10.722 3.61-.001.001-.001.002-.002.003l-108.415 218.764c-4.212 8.514-1.866 18.816 5.618 24.667l-10.85 21.859c-4.533 9.109-2.813 20.088 4.288 27.374l-46.743 94.461c-1.961 3.96-.34 8.759 3.62 10.72s8.759.34 10.72-3.62l46.723-94.435c.952.117 1.909.177 2.868.178 9.122-.009 17.454-5.175 21.519-13.341l10.851-21.863c1.667.449 3.385.678 5.111.681 7.602-.009 14.545-4.315 17.931-11.121l56.83-114.672c4.415 6.86 12.012 11.008 20.17 11.012h8v24.8c-18.612 3.827-31.976 20.199-32 39.2v144c.025 22.081 17.919 39.975 40 40h112c3.044.001 6.079-.345 9.045-1.031 2.255.684 4.599 1.032 6.955 1.031h64c13.249-.015 23.985-10.751 24-24v-96c-.013-10.166-6.419-19.224-16-22.624v-17.376zm-215.435-288.831c-3.957-1.965-5.573-6.766-3.608-10.723s6.766-5.573 10.723-3.608l42.993 21.342c3.986 1.906 5.673 6.682 3.767 10.668s-6.682 5.673-10.668 3.767c-.071-.034-.142-.069-.212-.105zm-3.357 78.675 14.326 7.111-11.642 23.493-9.313 18.792-14.372-7.134zm-28.668-14.23 14.336 7.116-21 42.262-14.292-7.092zm-95.765 265.235c-1.993 3.943-6.805 5.524-10.748 3.531-3.903-1.973-5.499-6.714-3.583-10.645l10.671-21.5 14.331 7.114zm88.957-143.4-21.427-10.639-7.114 14.332 21.436 10.64-7.1 14.336-21.446-10.645-7.113 14.332 21.454 10.649-7.105 14.336-21.467-10.654-7.114 14.332 21.472 10.658-7.1 14.337-21.486-10.663-7.113 14.332 21.491 10.668-5.329 10.752c-.984 1.977-3.383 2.783-5.361 1.8l-35.83-17.784c-1.977-.987-2.782-3.387-1.8-5.366l62.164-125.436 42.995 21.341zm20.888-42.149-6.678 13.476-42.942-21.316 6.645-13.546.832-1.68 42.988 21.338zm15.38 40.7c-4.416-.005-7.995-3.584-8-8v-11.416l7-14.274 15.024-30.31h129.976c4.416.005 7.995 3.584 8 8v8h-48c-4.418 0-8 3.582-8 8s3.582 8 8 8h48v24c-.005 4.416-3.584 7.995-8 8zm-8 80c.015-13.249 10.751-23.985 24-24 4.418 0 8-3.582 8-8v-32h96v72h-128zm24 168c-13.249-.015-23.985-10.751-24-24v-8h128v24c-.001 2.726.464 5.431 1.376 8zm104-104v56h-128v-96h144v17.376c-9.581 3.4-15.987 12.458-16 22.624zm96 96c-.005 4.416-3.584 7.995-8 8h-64c-4.416-.005-7.995-3.584-8-8v-8h80zm0-56h-16c-4.418 0-8 3.582-8 8s3.582 8 8 8h16v16h-80v-48h80zm0-32h-80v-8c.005-4.416 3.584-7.995 8-8h64c4.416.005 7.995 3.584 8 8zm-64-32v-16h48v16zm-16-32v-32h80v32z"/><path d="m306.627 376.064h-24c-6.627 0-12 5.373-12 12s5.373 12 12 12h24c6.627 0 12-5.373 12-12s-5.373-12-12-12z"/><path d="m294.627 360.064c4.418 0 8-3.582 8-8v-8c0-4.418-3.582-8-8-8s-8 3.582-8 8v8c0 4.418 3.581 8 8 8z"/><path d="m278.627 360.064v-8c0-4.418-3.582-8-8-8s-8 3.582-8 8v8c0 4.418 3.582 8 8 8s8-3.582 8-8z"/><path d="m318.627 344.064c-4.418 0-8 3.582-8 8v8c0 4.418 3.582 8 8 8s8-3.582 8-8v-8c0-4.418-3.582-8-8-8z"/><path d="m382.627 416.064h8c4.418 0 8-3.582 8-8s-3.582-8-8-8h-8c-4.418 0-8 3.582-8 8s3.581 8 8 8z"/><path d="m278.627 184.064h16c4.418 0 8-3.582 8-8s-3.582-8-8-8h-16c-4.418 0-8 3.582-8 8s3.581 8 8 8z"/></svg>