<svg id="Layer_1" enable-background="new 0 0 512 512" height="512" viewBox="0 0 512 512" width="512" xmlns="http://www.w3.org/2000/svg"><g><path d="m192.679 259.171c-4.143 0-7.5 3.358-7.5 7.5 0 7.039-5.727 12.766-12.766 12.766s-12.766-5.727-12.766-12.766c0-4.142-3.357-7.5-7.5-7.5-15.389 0-6.411 35.266 20.266 35.266 26.757.001 35.579-35.266 20.266-35.266z"/><path d="m220.153 214.538c-6.649 0-12.039 5.39-12.039 12.039s5.39 12.039 12.039 12.039 12.039-5.39 12.039-12.039-5.39-12.039-12.039-12.039z"/><path d="m205.461 200.067c5.849-1.22 24.663-3.368 34.077 2.551 3.508 2.206 8.138 1.148 10.342-2.357 7.986-12.706-21.438-20.307-47.48-14.879-4.056.846-6.657 4.818-5.812 8.873.846 4.055 4.822 6.658 8.873 5.812z"/><path d="m124.673 214.538c-6.649 0-12.039 5.39-12.039 12.039s5.39 12.039 12.039 12.039 12.039-5.39 12.039-12.039-5.39-12.039-12.039-12.039z"/><path d="m148.237 194.255c.846-4.055-1.756-8.027-5.812-8.873-2.912-.607-28.935-5.641-45.122 4.538-3.507 2.205-4.562 6.834-2.357 10.341 2.207 3.508 6.836 4.561 10.342 2.357 9.403-5.912 27.787-3.846 34.082-2.55 4.056.842 8.023-1.759 8.867-5.813z"/><path d="m510.853 491.333c-3.364-30.714-17.894-53.576-31.501-68.714 15.774-12.861 25.277-32.375 25.277-52.83 0-42.069 1.794-54.858-7.817-75.513 13.891-19.972 11.046-44.099 9.956-53.283l-.063-.524c-.705-5.97-5.776-10.473-11.797-10.473h-44.416c-6.021 0-11.092 4.502-11.797 10.473-.279 2.363-.478 4.674-.613 6.944-5.707-1.217-11.536-1.835-17.425-1.835-14.512 0-20.925-.391-31.42 1.865-.204-2.56-.452-4.682-.725-6.974-.705-5.97-5.776-10.473-11.797-10.473h-44.415c-6.021 0-11.092 4.502-11.797 10.473-2.566 21.74.945 39.529 10.433 53.155-9.979 20.99-8.12 34.152-8.12 76.165 0 20.462 9.508 39.981 25.294 52.844-3.534 3.93-6.802 8.02-9.795 12.257-14.797-52.054-58.674-93.029-114.437-102.197 28.205-15.676 48.254-43.766 53.542-75.83 21.023-4.242 36.716-22.882 36.716-44.895 0-21.386-15.026-39.764-35.29-44.568v-44.808c5.82-7.821 10.706-16.994 14.692-27.608 5.076-11.798 6.683-14.365 6.683-20.214 0-9.98-6.399-18.412-15.098-20.973 4.832-12.738 9.097-17.608 9.097-27.014-.001-14.768-11.33-26.783-25.255-26.783h-143.827c-43.143 0-80.532 36.896-80.532 88.171 0 4.142 3.357 7.5 7.5 7.5s7.5-3.358 7.5-7.5c0-43.012 30.76-73.171 65.532-73.171h143.827c7.534 0 12.557 9.117 9.173 16.99-8.545 19.866-9.572 21.708-9.572 24.987 0 6.078 4.942 11.023 11.016 11.023 3.373 0 5.639 3.501 5.639 6.77 0 3.317-3.055 7.742-5.667 14.788-32.068 85.741-118.528 33.827-152.947 68.106v-19.579c0-8.421-7.18-15.209-15.709-14.495-17.937 1.49-35.788 5.247-47.9 18.223-1.519 1.624-3.392.088-3.392-2.223v-21.419c0-4.142-3.358-7.5-7.5-7.5s-7.5 3.358-7.5 7.5v21.419c0 11.998 10.603 20.237 21.369 17.317v10.484c-20.258 4.805-35.28 23.187-35.28 44.577 0 22.003 15.69 40.642 36.707 44.892 5.292 32.07 25.346 60.159 53.554 75.83-68.524 11.26-119.922 70.793-119.922 141.55 0 20.545 16.71 37.26 37.25 37.26h11.875c4.143 0 7.5-3.358 7.5-7.5s-3.357-7.5-7.5-7.5h-11.875c-12.269 0-22.25-9.986-22.25-22.26 0-48.423 26.568-90.621 66.211-112.513v53.366c-13.387 3.359-23.333 15.491-23.333 29.907 0 17.002 13.832 30.834 30.833 30.834 17.002 0 30.834-13.832 30.834-30.834 0-14.415-9.945-26.548-23.334-29.907v-60.421c11.174-4.391 23.132-7.272 35.636-8.382l32.029 104.487v45.723h-84.634c-4.143 0-7.5 3.358-7.5 7.5s3.357 7.5 7.5 7.5h226.26c5.957 0 11.587-1.413 16.586-3.911 3.296 2.774 7.516 4.411 11.975 4.411h106.557c4.143 0 7.5-3.358 7.5-7.5s-3.357-7.5-7.5-7.5h-105.656c9.175-11.856 8.674-24.503 6.689-40.552 4.771-9.161 10.869-17.75 18.216-25.6 17.871 8.821 27.604 7.011 75.654 7.011 10.424 0 20.676-2.416 29.99-7.014 12.46 13.327 26.32 34.036 29.395 62.114.244 2.202-1.478 4.04-3.604 4.04h-20.684c-4.143 0-7.5 3.358-7.5 7.5s3.357 7.5 7.5 7.5h20.684c11.016.001 19.73-9.58 18.515-20.666zm-232.007-308.301c27.042 9.904 26.911 48.127-.019 57.905.027-2.061.019 5.757.019-57.905zm-212.871-.009c0 63.872-.008 55.797.019 57.908-26.941-9.799-27.02-48.008-.019-57.908zm39.605 261.977c0 8.731-7.104 15.834-15.834 15.834s-15.833-7.104-15.833-15.834 7.103-15.834 15.833-15.834 15.834 7.103 15.834 15.834zm-24.079-195.61c-.724-6.666-.526-1.425-.526-102.94 7.079-4.222 16.799-6.679 30.631-7.868v19.665c0 13.54 15.899 20.389 25.096 10.553 19.872-21.289 83.477 3.892 127.144-30.648 0 109.976.2 104.546-.527 111.25-3.675 34.355-27.062 64.214-59.579 76.071-56.645 20.63-116.056-18.276-122.239-76.083zm66.071 93.642c16.247 3.889 33.393 3.895 49.673.004l-24.83 81.038zm174.241 147.369c-2.399 1.002-5.551 6.099-15.277 6.099h-126.625v-45.69l32.027-104.521c12.506 1.11 24.467 3.992 35.643 8.385v48.993c-12.693 3.328-22.086 14.896-22.086 28.618v37.715c0 4.142 3.357 7.5 7.5 7.5s7.5-3.358 7.5-7.5v-37.715c0-8.041 6.542-14.583 14.583-14.583 8.042 0 14.584 6.542 14.584 14.583v37.715c0 4.142 3.358 7.5 7.5 7.5s7.5-3.358 7.5-7.5v-37.715c0-13.72-9.391-25.287-22.081-28.617v-41.938c34.489 19.048 59.081 53.464 64.889 93.98 1.133 13.482 4.214 25.347-5.657 34.691zm131.487-245.404h38.831c2.299 20.576-1.102 39.211-18.142 51.172-.333.233-.989.233-1.324-.001-15.008-10.508-21.516-27.714-19.365-51.171zm-118.192 0h38.83c2.287 20.468-.93 39.09-18.142 51.172-.334.233-.99.233-1.324-.001-15.007-10.508-21.515-27.714-19.364-51.171zm101.449 177.862h-45.67c-29.859 0-53.071-24.696-53.071-53.07 0-41.54-1.218-49.258 4.317-64.154 1.198.974 2.444 1.914 3.738 2.82 5.546 3.883 12.997 3.884 18.544-.01 18.168-12.753 23.652-30.83 24.865-45.588 5.695-1.507 11.562-2.279 17.507-2.279 14.508 0 21.039-.484 31.55 2.326 1.99 19.683 10.592 34.956 25.727 45.551 2.772 1.941 6.019 2.911 9.266 2.911 5.653 0 9.065-2.622 12.207-5.117 5.213 14.444 4.092 21.45 4.092 63.54-.001 28.486-23.319 53.07-53.072 53.07z"/><path d="m369.399 315.933c-4.747 0-8.596 3.849-8.596 8.596s3.849 8.596 8.596 8.596 8.596-3.848 8.596-8.596-3.849-8.596-8.596-8.596z"/><path d="m458.043 315.933c-4.747 0-8.596 3.849-8.596 8.596s3.849 8.596 8.596 8.596 8.596-3.848 8.596-8.596-3.849-8.596-8.596-8.596z"/><path d="m443.043 376.249c-4.143 0-7.5 3.358-7.5 7.5 0 3.952-3.215 7.167-7.167 7.167-3.86 0-7.009-3.071-7.152-6.897.001-.09.007-.179.007-.27v-15.375c12.752-6.863 19.32-17.875 18.985-31.866-.188-7.911-6.527-14.108-14.432-14.108h-24.136c-3.902 0-7.557 1.53-10.294 4.309-2.729 2.769-4.198 6.432-4.141 10.313.14 9.428 3.586 22.364 18.996 30.965v15.762c0 .091.006.18.007.27-.144 3.826-3.292 6.897-7.154 6.897-3.951 0-7.166-3.215-7.166-7.167 0-4.142-3.357-7.5-7.5-7.5s-7.5 3.358-7.5 7.5c0 12.223 9.944 22.167 22.167 22.167 5.615 0 10.746-2.103 14.656-5.557 3.91 3.454 9.041 5.557 14.656 5.557 12.223 0 22.166-9.944 22.166-22.167.002-4.142-3.355-7.5-7.498-7.5zm-28.425-21.359c-.292-.034-.587-.057-.887-.057-.003 0-.007 0-.01 0s-.007 0-.01 0c-.088 0-.174.01-.261.013-7.245-4.073-10.929-9.787-11.221-17.444h23c.034 7.842-3.359 13.423-10.611 17.488z"/></g></svg>