<svg id="bandaid" enable-background="new 0 0 300 300" height="512" viewBox="0 0 300 300" width="512" xmlns="http://www.w3.org/2000/svg"><g><circle cx="121.717" cy="139.501" fill="#eaeaea" r="78"/><g><path d="m226.461 252.246c-19.005 19.005-49.818 19.005-68.822 0l-108.667-108.667c-19.005-19.005-19.005-49.818 0-68.822 19.005-19.005 49.818-19.005 68.822 0l108.667 108.667c19.005 19.004 19.005 49.817 0 68.822z" fill="#edebdc"/><path d="m192.049 270.499c-14.066 0-27.293-5.479-37.238-15.426l-108.669-108.666c-20.535-20.535-20.535-53.945 0-74.479 9.949-9.947 23.176-15.426 37.242-15.426s27.293 5.479 37.238 15.426l108.668 108.666c20.535 20.535 20.535 53.945 0 74.479-9.948 9.948-23.175 15.426-37.241 15.426zm-108.664-205.996c-11.93 0-23.148 4.646-31.586 13.082-17.414 17.414-17.414 45.75 0 63.166l108.668 108.666c8.438 8.436 19.652 13.082 31.582 13.082s23.148-4.646 31.586-13.082c17.414-17.414 17.414-45.75 0-63.166l-108.669-108.666c-8.437-8.436-19.652-13.082-31.581-13.082zm143.078 187.742h.039z" fill="#4c241d"/></g><g><path d="m226.461 74.756c-19.005-19.005-49.818-19.005-68.822 0l-108.667 108.667c-19.005 19.005-19.005 49.818 0 68.822 19.005 19.005 49.818 19.005 68.822 0l108.667-108.667c19.005-19.004 19.005-49.817 0-68.822z" fill="#c1dbdc"/><path d="m83.385 270.499c-14.066 0-27.293-5.479-37.242-15.426-20.535-20.533-20.535-53.943 0-74.479l108.667-108.665c9.945-9.947 23.172-15.426 37.238-15.426s27.293 5.479 37.242 15.426c20.535 20.533 20.535 53.943 0 74.479l-108.667 108.665c-9.946 9.948-23.172 15.426-37.238 15.426zm108.664-205.996c-11.93 0-23.145 4.646-31.582 13.082l-108.668 108.666c-17.414 17.416-17.414 45.752 0 63.166 8.438 8.436 19.656 13.082 31.586 13.082s23.145-4.646 31.582-13.082l108.668-108.666c17.414-17.416 17.414-45.752 0-63.166-8.438-8.436-19.657-13.082-31.586-13.082z" fill="#4c241d"/></g><path d="m247.717 45.501c-2.211 0-4-1.791-4-4v-8c0-2.209 1.789-4 4-4s4 1.791 4 4v8c0 2.209-1.789 4-4 4z" fill="#4c241d"/><path d="m247.717 69.501c-2.211 0-4-1.791-4-4v-8c0-2.209 1.789-4 4-4s4 1.791 4 4v8c0 2.209-1.789 4-4 4z" fill="#4c241d"/><path d="m239.717 53.501h-8c-2.211 0-4-1.791-4-4s1.789-4 4-4h8c2.211 0 4 1.791 4 4s-1.789 4-4 4z" fill="#4c241d"/><path d="m263.717 53.501h-8c-2.211 0-4-1.791-4-4s1.789-4 4-4h8c2.211 0 4 1.791 4 4s-1.79 4-4 4z" fill="#4c241d"/><circle cx="264.983" cy="96.685" fill="#4c241d" r="4.276"/><g><path d="m145.865 167.078c0-4.823-3.612-9.147-8.429-9.399-5.137-.269-9.386 3.817-9.386 8.895v.504c0 3.177-1.667 6.041-4.259 7.879-2.724 1.931-4.359 5.282-3.8 8.995.566 3.758 3.533 6.914 7.258 7.669 1.678.34 3.297.228 4.759-.236 3.259-1.034 6.639-1.035 9.898 0 1.462.464 3.081.576 4.76.236 3.725-.755 6.691-3.911 7.258-7.669.56-3.713-1.076-7.064-3.8-8.995-2.592-1.838-4.259-4.702-4.259-7.879z" fill="#fff"/><path d="m144.724 195.815c-1.371 0-2.734-.207-4.027-.619-2.484-.785-5-.785-7.477 0-2.16.686-4.492.801-6.766.344-5.324-1.078-9.605-5.598-10.422-10.992-.754-5.014 1.332-9.938 5.441-12.854 1.637-1.16 2.574-2.842 2.574-4.617v-.504c0-3.523 1.465-6.938 4.023-9.363 2.598-2.463 6.016-3.709 9.574-3.525 6.852.357 12.219 6.24 12.219 13.393 0 1.773.938 3.457 2.574 4.617 4.109 2.91 6.195 7.836 5.441 12.854-.816 5.393-5.098 9.914-10.418 10.992-.904.183-1.822.274-2.736.274zm-7.765-9.203c2.07 0 4.141.32 6.156.959.875.275 1.801.316 2.758.129 2.055-.418 3.777-2.244 4.094-4.344.309-2.041-.496-3.961-2.156-5.137-3.723-2.643-5.945-6.807-5.945-11.143 0-2.846-2.082-5.27-4.637-5.404-1.406-.051-2.66.404-3.648 1.34s-1.531 2.201-1.531 3.561v.504c0 4.34-2.223 8.504-5.945 11.143-1.656 1.176-2.465 3.098-2.156 5.137.316 2.1 2.039 3.926 4.094 4.344.953.189 1.887.15 2.758-.129 2.013-.639 4.084-.96 6.158-.96z" fill="#4c241d"/></g><g><circle cx="167.695" cy="163.216" fill="#fff" r="8.246"/><path d="m167.693 175.462c-6.754 0-12.246-5.494-12.246-12.246s5.492-12.246 12.246-12.246 12.246 5.494 12.246 12.246-5.492 12.246-12.246 12.246zm0-16.492c-2.34 0-4.246 1.904-4.246 4.246s1.906 4.246 4.246 4.246 4.246-1.904 4.246-4.246-1.906-4.246-4.246-4.246z" fill="#4c241d"/></g><g><circle cx="152.326" cy="140.163" fill="#fff" r="8.246"/><path d="m152.326 152.409c-6.754 0-12.246-5.494-12.246-12.246s5.492-12.246 12.246-12.246 12.246 5.494 12.246 12.246-5.492 12.246-12.246 12.246zm0-16.492c-2.34 0-4.246 1.904-4.246 4.246s1.906 4.246 4.246 4.246 4.246-1.904 4.246-4.246-1.906-4.246-4.246-4.246z" fill="#4c241d"/></g><g><circle cx="125.431" cy="140.163" fill="#fff" r="8.246"/><path d="m125.431 152.409c-6.754 0-12.246-5.494-12.246-12.246s5.492-12.246 12.246-12.246 12.246 5.494 12.246 12.246-5.492 12.246-12.246 12.246zm0-16.492c-2.34 0-4.246 1.904-4.246 4.246s1.906 4.246 4.246 4.246 4.246-1.904 4.246-4.246-1.906-4.246-4.246-4.246z" fill="#4c241d"/></g><g><circle cx="106.22" cy="163.216" fill="#fff" r="8.246"/><path d="m106.22 175.462c-6.754 0-12.246-5.494-12.246-12.246s5.492-12.246 12.246-12.246 12.246 5.494 12.246 12.246-5.492 12.246-12.246 12.246zm0-16.492c-2.34 0-4.246 1.904-4.246 4.246s1.906 4.246 4.246 4.246 4.246-1.904 4.246-4.246-1.906-4.246-4.246-4.246z" fill="#4c241d"/></g><g fill="#4c241d"><circle cx="203.717" cy="233.501" r="4"/><circle cx="207.717" cy="209.501" r="4"/><circle cx="179.717" cy="229.501" r="4"/><circle cx="67.717" cy="89.501" r="4"/><circle cx="63.717" cy="113.501" r="4"/><circle cx="91.717" cy="93.501" r="4"/></g></g></svg>